<?xml version="1.0" encoding="utf-8"?>
<!-- Generator: Adobe Illustrator 19.0.0, SVG Export Plug-In . SVG Version: 6.00 Build 0)  -->
<svg version="1.1" id="Calque_11" xmlns="http://www.w3.org/2000/svg" xmlns:xlink="http://www.w3.org/1999/xlink" x="0px" y="0px"
	 viewBox="0 0 283.5 283.5" style="enable-background:new 0 0 283.5 283.5;" xml:space="preserve">
<style type="text/css">
	.st0{fill:#FFFFFF;}
	.st1{fill:#FF6400;}
	.st2{fill:#081C00;}
	.st3{fill:#084798;}
</style>
<g id="XMLID_122_">
	<polygon id="XMLID_121_" class="st0" points="19,70.9 141.7,0 264.5,70.9 264.5,212.6 141.7,283.5 19,212.6 	"/>
	<polygon id="XMLID_90_" class="st1" points="25.1,74.4 141.7,7.1 258.3,74.4 258.3,209.1 141.7,276.4 25.1,209.1 	"/>
</g>
<path id="XMLID_155_" class="st2" d="M43,100.7c-0.2,0-0.5-0.2-0.5-0.4c0-0.3,0.2-0.5,0.4-0.6l82.7-10.1c0.3,0,0.5,0.2,0.6,0.4
	c0,0.3-0.2,0.5-0.4,0.6L43,100.7C43.1,100.7,43.1,100.7,43,100.7z"/>
<path id="XMLID_145_" class="st2" d="M97.7,77.3c-0.3,0-0.5-0.2-0.5-0.5c0-0.3,0.2-0.5,0.5-0.5l77.3-4.4c0.3,0,0.5,0.2,0.5,0.5
	c0,0.3-0.2,0.5-0.5,0.5L97.7,77.3C97.7,77.3,97.7,77.3,97.7,77.3z"/>
<path id="XMLID_143_" class="st2" d="M185.5,51.7C185.5,51.7,185.5,51.7,185.5,51.7l-43.8-2.8c-0.3,0-0.5-0.3-0.5-0.5
	c0-0.3,0.2-0.5,0.5-0.5l43.8,2.8c0.3,0,0.5,0.3,0.5,0.5C186,51.5,185.8,51.7,185.5,51.7z"/>
<path id="XMLID_141_" class="st2" d="M168.2,34.1C168.2,34.1,168.1,34.1,168.2,34.1l-48.1-7.2c-0.3,0-0.5-0.3-0.4-0.6
	c0-0.3,0.3-0.5,0.6-0.4l48,7.2c0.3,0,0.5,0.3,0.4,0.6C168.7,33.9,168.4,34.1,168.2,34.1z"/>
<path id="XMLID_140_" class="st2" d="M209.4,103.4c-0.2,0-0.4-0.1-0.5-0.4c-0.1-0.3,0.1-0.5,0.3-0.6l38.1-10.6
	c0.3-0.1,0.5,0.1,0.6,0.3c0.1,0.3-0.1,0.5-0.3,0.6l-38.1,10.6C209.5,103.4,209.5,103.4,209.4,103.4z"/>
<path id="XMLID_138_" class="st2" d="M233.1,102.1c-0.2,0-0.4-0.1-0.5-0.3c-0.1-0.3,0.1-0.5,0.3-0.6l23.8-7.7
	c0.3-0.1,0.5,0.1,0.6,0.3s-0.1,0.5-0.3,0.6l-23.8,7.7C233.2,102.1,233.1,102.1,233.1,102.1z"/>
<path id="XMLID_137_" class="st2" d="M234.4,143.1c-0.2,0-0.3-0.1-0.4-0.2c-0.2-0.2-0.1-0.5,0.1-0.7l20.3-13.5
	c0.2-0.2,0.5-0.1,0.7,0.1c0.2,0.2,0.1,0.5-0.1,0.7L234.7,143C234.6,143,234.5,143.1,234.4,143.1z"/>
<path id="XMLID_136_" class="st2" d="M183.7,130.7c-0.2,0-0.4-0.1-0.5-0.3c-0.1-0.3,0-0.5,0.3-0.6l42.7-16.9c0.3-0.1,0.5,0,0.6,0.3
	c0.1,0.3,0,0.5-0.3,0.6l-42.7,16.9C183.8,130.7,183.8,130.7,183.7,130.7z"/>
<path id="XMLID_135_" class="st2" d="M127.6,105.7c-0.2,0-0.4-0.2-0.5-0.4c-0.1-0.3,0.1-0.5,0.4-0.6l48.1-9.1
	c0.3-0.1,0.5,0.1,0.6,0.4c0.1,0.3-0.1,0.5-0.4,0.6L127.6,105.7C127.6,105.7,127.6,105.7,127.6,105.7z"/>
<path id="XMLID_132_" class="st2" d="M133.9,169.2c-0.2,0-0.4-0.1-0.5-0.3c-0.1-0.2,0-0.5,0.2-0.7l43.4-20.8c0.2-0.1,0.5,0,0.7,0.2
	c0.1,0.2,0,0.5-0.2,0.7l-43.4,20.8C134,169.1,133.9,169.2,133.9,169.2z"/>
<path id="XMLID_131_" class="st2" d="M164.3,209.8c-0.1,0-0.3-0.1-0.4-0.2c-0.2-0.2-0.1-0.5,0.1-0.7l48.4-37.3
	c0.2-0.2,0.5-0.1,0.7,0.1c0.2,0.2,0.1,0.5-0.1,0.7l-48.4,37.3C164.5,209.8,164.4,209.8,164.3,209.8z"/>
<path id="XMLID_130_" class="st2" d="M222.3,202c-0.1,0-0.2,0-0.3-0.1c-0.2-0.2-0.2-0.5,0-0.7l22.7-23.7c0.2-0.2,0.5-0.2,0.7,0
	c0.2,0.2,0.2,0.5,0,0.7l-22.7,23.7C222.5,201.9,222.4,202,222.3,202z"/>
<path id="XMLID_129_" class="st2" d="M227.9,172.6c-0.1,0-0.3-0.1-0.4-0.2c-0.2-0.2-0.2-0.5,0.1-0.7l24.5-21.1
	c0.2-0.2,0.5-0.2,0.7,0.1c0.2,0.2,0.2,0.5-0.1,0.7l-24.5,21.1C228.1,172.5,228,172.6,227.9,172.6z"/>
<path id="XMLID_128_" class="st2" d="M254.8,175.7c-0.1,0-0.2,0-0.3-0.1c-0.2-0.2-0.2-0.5,0-0.7l6.5-7.3c0.2-0.2,0.5-0.2,0.7,0
	c0.2,0.2,0.2,0.5,0,0.7l-6.5,7.3C255,175.6,254.9,175.7,254.8,175.7z"/>
<path id="XMLID_127_" class="st2" d="M188.6,248.6c-0.1,0-0.2,0-0.3-0.1c-0.2-0.2-0.2-0.5,0-0.7l34.1-37.9c0.2-0.2,0.5-0.2,0.7,0
	c0.2,0.2,0.2,0.5,0,0.7l-34.1,37.9C188.8,248.5,188.7,248.6,188.6,248.6z"/>
<path id="XMLID_126_" class="st2" d="M97.5,227.4c-0.2,0-0.3-0.1-0.4-0.2c-0.1-0.2-0.1-0.5,0.2-0.7l66.9-42.7
	c0.2-0.1,0.5-0.1,0.7,0.2c0.1,0.2,0.1,0.5-0.2,0.7l-66.9,42.7C97.6,227.4,97.6,227.4,97.5,227.4z"/>
<path id="XMLID_125_" class="st2" d="M68.7,165.2c-0.2,0-0.4-0.1-0.5-0.3c-0.1-0.3,0-0.5,0.3-0.6l58.3-20.8c0.3-0.1,0.5,0,0.6,0.3
	c0.1,0.3,0,0.5-0.3,0.6l-58.3,20.8C68.8,165.1,68.7,165.2,68.7,165.2z"/>
<path id="XMLID_124_" class="st2" d="M29.1,174.3c-0.2,0-0.4-0.1-0.5-0.3c-0.1-0.3,0-0.5,0.3-0.6l54.6-18.7c0.3-0.1,0.5,0,0.6,0.3
	c0.1,0.3,0,0.5-0.3,0.6l-54.6,18.7C29.2,174.3,29.1,174.3,29.1,174.3z"/>
<path id="XMLID_123_" class="st2" d="M230.9,57.2C230.9,57.2,230.9,57.2,230.9,57.2l-35.4-1.5c-0.3,0-0.5-0.2-0.5-0.5
	c0-0.3,0.2-0.5,0.5-0.5l35.3,1.5c0.3,0,0.5,0.2,0.5,0.5C231.4,57,231.2,57.2,230.9,57.2z"/>
<path id="XMLID_120_" class="st2" d="M232,69.4c-0.3,0-0.5-0.2-0.5-0.5c0-0.3,0.2-0.5,0.5-0.5l20.5-1.1c0.3,0,0.5,0.2,0.5,0.5
	c0,0.3-0.2,0.5-0.5,0.5L232,69.4C232,69.4,232,69.4,232,69.4z"/>
<path id="XMLID_119_" class="st2" d="M164.1,44.6C164.1,44.6,164.1,44.6,164.1,44.6L88,37.5c-0.3,0-0.5-0.3-0.5-0.5
	c0-0.3,0.3-0.5,0.5-0.5l76.1,7.1c0.3,0,0.5,0.3,0.5,0.5C164.6,44.4,164.3,44.6,164.1,44.6z"/>
<path id="XMLID_118_" class="st2" d="M120.2,56.8C120.2,56.8,120.2,56.8,120.2,56.8L58,55.3c-0.3,0-0.5-0.2-0.5-0.5
	c0-0.3,0.2-0.5,0.5-0.5l62.2,1.5c0.3,0,0.5,0.2,0.5,0.5C120.7,56.6,120.5,56.8,120.2,56.8z"/>
<path id="XMLID_117_" class="st2" d="M44,220.4c-0.2,0-0.4-0.1-0.4-0.3c-0.1-0.2,0-0.5,0.2-0.7l68.8-34.8c0.2-0.1,0.5,0,0.7,0.2
	c0.1,0.2,0,0.5-0.2,0.7l-68.8,34.8C44.1,220.4,44.1,220.4,44,220.4z"/>
<path id="XMLID_116_" class="st2" d="M124.8,267.1c-0.1,0-0.3-0.1-0.4-0.2c-0.2-0.2-0.2-0.5,0-0.7l66.9-59.2c0.2-0.2,0.5-0.2,0.7,0
	c0.2,0.2,0.2,0.5,0,0.7L125.1,267C125,267.1,124.9,267.1,124.8,267.1z"/>
<path id="XMLID_115_" class="st2" d="M25.1,136.3c-0.2,0-0.4-0.2-0.5-0.4c-0.1-0.3,0.1-0.5,0.4-0.6l80.9-18.1
	c0.3-0.1,0.5,0.1,0.6,0.4c0.1,0.3-0.1,0.5-0.4,0.6l-80.9,18.1C25.2,136.3,25.2,136.3,25.1,136.3z"/>
<path id="XMLID_96_" class="st2" d="M53.3,76.6c-0.3,0-0.5-0.2-0.5-0.5c0-0.3,0.2-0.5,0.5-0.5l108.4-5.1c0.3,0,0.5,0.2,0.5,0.5
	c0,0.3-0.2,0.5-0.5,0.5L53.3,76.6C53.3,76.6,53.3,76.6,53.3,76.6z"/>
<path id="XMLID_95_" class="st2" d="M180,85.8c-0.2,0-0.5-0.2-0.5-0.4c0-0.3,0.2-0.5,0.4-0.6l64.1-8.5c0.3,0,0.5,0.2,0.6,0.4
	c0,0.3-0.2,0.5-0.4,0.6L180,85.8C180,85.8,180,85.8,180,85.8z"/>
<path id="XMLID_94_" class="st2" d="M189.4,72.9c-0.3,0-0.5-0.2-0.5-0.5c0-0.3,0.2-0.5,0.5-0.5l33.2-2.1c0.3,0,0.5,0.2,0.5,0.5
	c0,0.3-0.2,0.5-0.5,0.5L189.4,72.9C189.5,72.9,189.4,72.9,189.4,72.9z"/>
<path id="XMLID_93_" class="st2" d="M133.9,242.9c-0.1,0-0.3-0.1-0.4-0.2c-0.2-0.2-0.1-0.5,0.1-0.7l61-49.5c0.2-0.2,0.5-0.1,0.7,0.1
	c0.2,0.2,0.1,0.5-0.1,0.7l-61,49.5C134.1,242.9,134,242.9,133.9,242.9z"/>
<path id="XMLID_92_" class="st2" d="M158.2,16.3c0,0-0.1,0-0.1,0l-24.4-5.7c-0.3-0.1-0.4-0.3-0.4-0.6c0.1-0.3,0.3-0.4,0.6-0.4
	l24.4,5.7c0.3,0.1,0.4,0.3,0.4,0.6C158.7,16.2,158.5,16.3,158.2,16.3z"/>
<path id="XMLID_91_" class="st2" d="M31.7,213.3c-0.2,0-0.4-0.1-0.5-0.3c-0.1-0.3,0-0.5,0.2-0.7L260,106.1c0.3-0.1,0.5,0,0.7,0.2
	s0,0.5-0.2,0.7L31.9,213.3C31.8,213.3,31.7,213.3,31.7,213.3z"/>
<path id="XMLID_152_" class="st2" d="M232,224.8c-0.1,0-0.2,0-0.3-0.1c-0.2-0.2-0.3-0.5-0.1-0.7l26.3-34.5c0.2-0.2,0.5-0.3,0.7-0.1
	c0.2,0.2,0.3,0.5,0.1,0.7l-26.3,34.5C232.3,224.7,232.2,224.8,232,224.8z"/>
<path id="XMLID_153_" class="st2" d="M25.1,133.7c-0.2,0-0.4-0.2-0.5-0.4c-0.1-0.3,0.1-0.5,0.4-0.6l31.2-6.7
	c0.3-0.1,0.5,0.1,0.6,0.4c0.1,0.3-0.1,0.5-0.4,0.6l-31.2,6.7C25.2,133.7,25.2,133.7,25.1,133.7z"/>
<path id="XMLID_149_" class="st0" d="M141.7,0L19,70.9v141.7l122.7,70.9l122.7-70.9V70.9L141.7,0z M258.3,209.1l-116.6,67.3
	L25.1,209.1V74.4L141.7,7.1l116.6,67.3V209.1z"/>
<circle id="XMLID_88_" class="st0" cx="68.7" cy="164.7" r="20.8"/>
<circle id="XMLID_87_" class="st0" cx="183.7" cy="130.2" r="11.5"/>
<circle id="XMLID_86_" class="st0" cx="227.9" cy="172.1" r="7.4"/>
<circle id="XMLID_85_" class="st0" cx="222.3" cy="201.5" r="9.8"/>
<circle id="XMLID_84_" class="st0" cx="53.3" cy="76.1" r="9.8"/>
<circle id="XMLID_83_" class="st0" cx="195.6" cy="55.2" r="6.8"/>
<circle id="XMLID_82_" class="st0" cx="209.4" cy="102.9" r="6.8"/>
<circle id="XMLID_79_" class="st0" cx="189.4" cy="73.8" r="6.8"/>
<circle id="XMLID_70_" class="st0" cx="133.9" cy="242.4" r="8.2"/>
<circle id="XMLID_65_" class="st0" cx="90.3" cy="178" r="6.8"/>
<circle id="XMLID_64_" class="st0" cx="233.1" cy="101.6" r="6.8"/>
<circle id="XMLID_59_" class="st0" cx="234.4" cy="142.6" r="6.8"/>
<circle id="XMLID_58_" class="st0" cx="256.1" cy="119.5" r="6.8"/>
<circle id="XMLID_57_" class="st0" cx="232" cy="68.7" r="5.5"/>
<circle id="XMLID_56_" class="st0" cx="254.8" cy="175.2" r="5.5"/>
<circle id="XMLID_55_" class="st0" cx="180" cy="85.3" r="8.6"/>
<circle id="XMLID_54_" class="st0" cx="127.6" cy="105.2" r="8.6"/>
<circle id="XMLID_53_" class="st0" cx="141.2" cy="48.4" r="7.3"/>
<circle id="XMLID_52_" class="st0" cx="164.3" cy="209.3" r="17.6"/>
<circle id="XMLID_51_" class="st0" cx="97.5" cy="226.9" r="23.7"/>
<circle id="XMLID_50_" class="st0" cx="43" cy="100.2" r="21"/>
<circle id="XMLID_49_" class="st0" cx="97.7" cy="76.8" r="13.6"/>
<circle id="XMLID_48_" class="st0" cx="120.2" cy="26.4" r="8.9"/>
<circle id="XMLID_89_" class="st0" cx="133.9" cy="168.7" r="13.7"/>
<path id="XMLID_47_" class="st0" d="M183.2,238.2c-8.3,0-15,6.7-15,15c0,2.5,0.6,4.9,1.7,6.9l26-15
	C193.2,240.9,188.5,238.2,183.2,238.2z"/>
<path id="XMLID_45_" class="st0" d="M43,173.8c0-10.5-7.8-19.2-17.9-20.7v41.4C35.3,193.1,43,184.4,43,173.8z"/>
<g id="XMLID_1_">
	<path id="XMLID_2_" class="st2" d="M65.2,120.3h6.5L86,147.2l3.7-26.9h7.2l-5.4,39.5h-6.3l-14.4-27.2L67,159.8h-7.1L65.2,120.3z"/>
	<path id="XMLID_4_" class="st2" d="M106,120.3h6.9c4.2,0,7.2,0.4,8.9,1.1c2.1,0.9,3.8,2.2,4.9,3.8c1.1,1.6,1.7,3.5,1.7,5.7
		c0,2.4-0.6,4.6-1.9,6.5c-1.3,1.9-3,3.4-5.2,4.2c-2.2,0.9-5.8,1.4-10.9,1.4l-2.3,16.7h-7.4L106,120.3z M111.2,136.2
		c4,0,6.6-0.4,7.9-1.3c1.2-0.8,1.8-2,1.8-3.7c0-0.9-0.2-1.7-0.7-2.3c-0.5-0.6-1.2-1.1-2.1-1.3c-0.9-0.3-2.8-0.4-5.6-0.4L111.2,136.2
		z"/>
	<path id="XMLID_9_" class="st2" d="M131,130.6h3.1c0.5-3.8,1.1-6.4,1.7-7.8c0.6-1.4,1.5-2.5,2.5-3.2s2.4-1,3.9-1
		c2,0,3.9,0.6,5.6,1.7l-0.8,5.9c-1-0.9-2-1.3-3-1.3c-0.8,0-1.3,0.3-1.7,0.8c-0.3,0.5-0.7,2.2-1.1,4.9h4.5l-0.8,6.2h-4.4l-3.2,23
		h-7.2l3.1-23h-3.1L131,130.6z"/>
	<path id="XMLID_11_" class="st2" d="M150.8,119.3h7.2l-5.5,40.5h-7.2L150.8,119.3z"/>
	<path id="XMLID_13_" class="st2" d="M176.4,129.9c2.6,0,5,0.6,7.1,1.8c2.1,1.2,3.8,2.9,5,5.1s1.8,4.7,1.8,7.4
		c0,4.5-1.6,8.4-4.9,11.6c-3.2,3.2-7.3,4.8-12,4.8c-4.2,0-7.5-1.3-9.9-3.8c-2.5-2.5-3.7-5.8-3.7-9.9c0-4.9,1.7-9,5-12.2
		C168.1,131.5,172,129.9,176.4,129.9z M175.9,136.6c-2.9,0-5.2,1.1-6.7,3.2c-1.6,2.1-2.3,4.4-2.3,6.8c0,2.2,0.6,3.9,1.9,5.3
		c1.3,1.3,3,2,5.1,2c3,0,5.3-1,6.9-3s2.4-4.4,2.4-7c0-2.1-0.7-3.9-2-5.2C179.8,137.3,178.1,136.6,175.9,136.6z"/>
	<path id="XMLID_25_" class="st2" d="M194.7,130.6h6.9l4,15.7l8.5-15.7h2.8l4.1,15.7l8.5-15.7h7.6l-15.9,29.2h-3.5l-4-15.4
		l-8.3,15.4h-3.4L194.7,130.6z"/>
</g>
<g id="XMLID_6_">
	<path id="XMLID_133_" class="st3" d="M67,159.8l2.2-16c-0.2,0-0.4,0-0.5,0c-2.4,0-4.6,0.4-6.8,1.1l-2,14.9H67z"/>
	<path id="XMLID_134_" class="st3" d="M77.8,146l7.4,13.9h3.7C87.5,153.7,83.3,148.7,77.8,146z"/>
	<path id="XMLID_139_" class="st3" d="M137.3,159.8l0.6-4.3c-1.3-0.4-2.6-0.6-4-0.6c-1.1,0-2.1,0.1-3.1,0.4l-0.6,4.5H137.3z"/>
	<path id="XMLID_142_" class="st3" d="M183.5,131.7c-2.1-1.2-4.5-1.8-7.1-1.8c-1.5,0-2.9,0.2-4.3,0.6c0,2.4,0.8,4.6,2.1,6.4
		c0.5-0.1,1.1-0.1,1.7-0.1c2.1,0,3.9,0.7,5.2,2c0.8,0.8,1.4,1.9,1.7,3c0.3,0,0.5,0,0.8,0c2.2,0,4.3-0.6,6-1.7
		c-0.3-1.1-0.7-2.2-1.3-3.3C187.3,134.6,185.6,132.9,183.5,131.7z"/>
	<path id="XMLID_144_" class="st3" d="M194.7,130.6l0.4,1.5c0.1-0.5,0.1-1,0.2-1.5H194.7z"/>
</g>
</svg>
